<svg width="16" height="20" viewBox="0 0 16 20" fill="none" xmlns="http://www.w3.org/2000/svg">
<path d="M14.886 4.85987L10.9971 1.10986C10.9242 1.03955 10.8255 1 10.7222 1H2.55553C1.69763 1 1 1.67272 1 2.50001V17.5C1 18.3273 1.69763 19 2.55557 19H13.4444C14.3024 19 15 18.3273 15 17.5V5.12499C15 5.02539 14.9589 4.93019 14.886 4.85987ZM11.1111 2.28029L13.6723 4.75001H11.8889C11.4601 4.75001 11.1111 4.41346 11.1111 4.00002V2.28029ZM14.2222 17.5C14.2222 17.9134 13.8733 18.25 13.4444 18.25H2.55557C2.12681 18.25 1.7778 17.9134 1.7778 17.5V2.50001C1.7778 2.08657 2.12681 1.75002 2.55557 1.75002H10.3333V4.00002C10.3333 4.82729 11.0309 5.5 11.8889 5.5H14.2222V17.5Z" fill="#757575" stroke="#757575" stroke-width="0.6"/>
<path d="M14.5 7.5V14.5H1.5L1.50004 7.5H14.5Z" stroke="#757575"/>
<path d="M5.95801 11.5791C5.9248 12.0381 5.75488 12.3994 5.44824 12.6631C5.14355 12.9268 4.74121 13.0586 4.24121 13.0586C3.69434 13.0586 3.26367 12.875 2.94922 12.5078C2.63672 12.1387 2.48047 11.6328 2.48047 10.9902V10.7295C2.48047 10.3193 2.55273 9.95801 2.69727 9.64551C2.8418 9.33301 3.04785 9.09375 3.31543 8.92773C3.58496 8.75977 3.89746 8.67578 4.25293 8.67578C4.74512 8.67578 5.1416 8.80762 5.44238 9.07129C5.74316 9.33496 5.91699 9.70508 5.96387 10.1816H5.08496C5.06348 9.90625 4.98633 9.70703 4.85352 9.58398C4.72266 9.45898 4.52246 9.39648 4.25293 9.39648C3.95996 9.39648 3.74023 9.50195 3.59375 9.71289C3.44922 9.92188 3.375 10.2471 3.37109 10.6885V11.0107C3.37109 11.4717 3.44043 11.8086 3.5791 12.0215C3.71973 12.2344 3.94043 12.3408 4.24121 12.3408C4.5127 12.3408 4.71484 12.2793 4.84766 12.1562C4.98242 12.0312 5.05957 11.8389 5.0791 11.5791H5.95801ZM8.74707 11.8809C8.74707 11.7148 8.68848 11.5879 8.57129 11.5C8.4541 11.4102 8.24316 11.3164 7.93848 11.2188C7.63379 11.1191 7.39258 11.0215 7.21484 10.9258C6.73047 10.6641 6.48828 10.3115 6.48828 9.86816C6.48828 9.6377 6.55273 9.43262 6.68164 9.25293C6.8125 9.07129 6.99902 8.92969 7.24121 8.82812C7.48535 8.72656 7.75879 8.67578 8.06152 8.67578C8.36621 8.67578 8.6377 8.73145 8.87598 8.84277C9.1143 8.95215 9.2988 9.10742 9.4297 9.30859C9.5625 9.50977 9.6289 9.73828 9.6289 9.99414H8.75C8.75 9.79883 8.68848 9.64746 8.56543 9.54004C8.44238 9.43066 8.26953 9.37598 8.04688 9.37598C7.83203 9.37598 7.66504 9.42188 7.5459 9.51367C7.42676 9.60352 7.36719 9.72266 7.36719 9.87109C7.36719 10.0098 7.43652 10.126 7.5752 10.2197C7.71582 10.3135 7.92188 10.4014 8.19336 10.4834C8.69336 10.6338 9.0576 10.8203 9.2861 11.043C9.5146 11.2656 9.6289 11.543 9.6289 11.875C9.6289 12.2441 9.4893 12.5342 9.21 12.7451C8.93066 12.9541 8.55469 13.0586 8.08203 13.0586C7.75391 13.0586 7.45508 12.999 7.18555 12.8799C6.91602 12.7588 6.70996 12.5938 6.56738 12.3848C6.42676 12.1758 6.35645 11.9336 6.35645 11.6582H7.23828C7.23828 12.1289 7.51953 12.3643 8.08203 12.3643C8.29102 12.3643 8.4541 12.3223 8.57129 12.2383C8.68848 12.1523 8.74707 12.0332 8.74707 11.8809ZM11.8027 11.9424L12.7695 8.73438H13.748L12.2627 13H11.3457L9.8662 8.73438H10.8418L11.8027 11.9424Z" fill="#757575"/>
</svg>
