<svg width="16" height="20" viewBox="0 0 16 20" fill="none" xmlns="http://www.w3.org/2000/svg">
<path d="M14.886 4.85987L10.9971 1.10986C10.9242 1.03955 10.8255 1 10.7222 1H2.55553C1.69763 1 1 1.67272 1 2.50001V17.5C1 18.3273 1.69763 19 2.55557 19H13.4444C14.3024 19 15 18.3273 15 17.5V5.12499C15 5.02539 14.9589 4.93019 14.886 4.85987ZM11.1111 2.28029L13.6723 4.75001H11.8889C11.4601 4.75001 11.1111 4.41346 11.1111 4.00002V2.28029ZM14.2222 17.5C14.2222 17.9134 13.8733 18.25 13.4444 18.25H2.55557C2.12681 18.25 1.7778 17.9134 1.7778 17.5V2.50001C1.7778 2.08657 2.12681 1.75002 2.55557 1.75002H10.3333V4.00002C10.3333 4.82729 11.0309 5.5 11.8889 5.5H14.2222V17.5Z" fill="#757575" stroke="#757575" stroke-width="0.6"/>
<path d="M14.5 7.5V14.5H1.5L1.50004 7.5H14.5Z" stroke="#757575"/>
<path d="M4.64357 10.2158L5.44337 8.74508H6.45412L5.21193 10.8603L6.48634 13.0107H5.46388L4.64357 11.5166L3.82326 13.0107H2.8008L4.07521 10.8603L2.83302 8.74508H3.84377L4.64357 10.2158ZM7.81056 12.3046H9.67675V13.0107H6.93166V8.74508H7.81056V12.3046ZM12.3956 11.8916C12.3956 11.7255 12.337 11.5986 12.2198 11.5107C12.1026 11.4209 11.8917 11.3271 11.587 11.2295C11.2823 11.1298 11.0411 11.0322 10.8633 10.9365C10.379 10.6748 10.1368 10.3222 10.1368 9.87886C10.1368 9.6484 10.2012 9.44332 10.3301 9.26363C10.461 9.08199 10.6475 8.94039 10.8897 8.83882C11.1339 8.73726 11.4073 8.68648 11.71 8.68648C12.0147 8.68648 12.2862 8.74215 12.5245 8.85347C12.7628 8.96285 12.9473 9.11812 13.0782 9.31929C13.211 9.52047 13.2774 9.74898 13.2774 10.0048H12.3985C12.3985 9.80953 12.337 9.65816 12.2139 9.55074C12.0909 9.44136 11.918 9.38668 11.6954 9.38668C11.4805 9.38668 11.3135 9.43258 11.1944 9.52437C11.0753 9.61422 11.0157 9.73336 11.0157 9.88179C11.0157 10.0205 11.085 10.1367 11.2237 10.2304C11.3643 10.3242 11.5704 10.4121 11.8419 10.4941C12.3419 10.6445 12.7061 10.831 12.9346 11.0537C13.1632 11.2763 13.2774 11.5537 13.2774 11.8857C13.2774 12.2548 13.1378 12.5449 12.8585 12.7558C12.5792 12.9648 12.2032 13.0693 11.7305 13.0693C11.4024 13.0693 11.1036 13.0097 10.8341 12.8906C10.5645 12.7695 10.3585 12.6045 10.2159 12.3955C10.0753 12.1865 10.0049 11.9443 10.0049 11.6689H10.8868C10.8868 12.1396 11.168 12.375 11.7305 12.375C11.9395 12.375 12.1026 12.333 12.2198 12.249C12.337 12.163 12.3956 12.0439 12.3956 11.8916Z" fill="#757575"/>
</svg>
